<?xml version="1.0" encoding="UTF-8" standalone="no"?>
<!-- Created with Inkscape (http://www.inkscape.org/) -->

<svg
   xmlns:dc="http://purl.org/dc/elements/1.1/"
   xmlns:cc="http://creativecommons.org/ns#"
   xmlns:rdf="http://www.w3.org/1999/02/22-rdf-syntax-ns#"
   xmlns:svg="http://www.w3.org/2000/svg"
   xmlns="http://www.w3.org/2000/svg"
   xmlns:sodipodi="http://sodipodi.sourceforge.net/DTD/sodipodi-0.dtd"
   xmlns:inkscape="http://www.inkscape.org/namespaces/inkscape"
   width="153.18347mm"
   height="81.761337mm"
   viewBox="0 0 153.18347 81.761337"
   version="1.1"
   id="svg8"
   inkscape:version="0.92.3 (2405546, 2018-03-11)"
   sodipodi:docname="logo.svg">
  <defs
     id="defs2" />
  <sodipodi:namedview
     id="base"
     pagecolor="#ffffff"
     bordercolor="#666666"
     borderopacity="1.0"
     inkscape:pageopacity="0.0"
     inkscape:pageshadow="2"
     inkscape:zoom="0.7"
     inkscape:cx="210.34298"
     inkscape:cy="49.092798"
     inkscape:document-units="mm"
     inkscape:current-layer="layer2"
     showgrid="false"
     showguides="true"
     inkscape:snap-nodes="false"
     inkscape:window-width="1299"
     inkscape:window-height="713"
     inkscape:window-x="67"
     inkscape:window-y="27"
     inkscape:window-maximized="1"
     fit-margin-top="0"
     fit-margin-left="0"
     fit-margin-right="0"
     fit-margin-bottom="0" />
  <metadata
     id="metadata5">
    <rdf:RDF>
      <cc:Work
         rdf:about="">
        <dc:format>image/svg+xml</dc:format>
        <dc:type
           rdf:resource="http://purl.org/dc/dcmitype/StillImage" />
        <dc:title></dc:title>
      </cc:Work>
    </rdf:RDF>
  </metadata>
  <g
     inkscape:groupmode="layer"
     id="layer3"
     inkscape:label="letters"
     transform="translate(-31.606403,-104.70075)" />
  <g
     inkscape:groupmode="layer"
     id="layer2"
     inkscape:label="geom"
     transform="translate(-31.606403,-104.70075)">
    <g
       id="g2338">
      <text
         transform="scale(0.86603091,1.1546932)"
         id="text1823"
         y="160.5948"
         x="34.354473"
         style="font-style:normal;font-variant:normal;font-weight:normal;font-stretch:normal;font-size:44.30151367px;line-height:1.25;font-family:'Noto Sans Gothic';-inkscape-font-specification:'Noto Sans Gothic';letter-spacing:0px;word-spacing:0px;fill:#ff0000;fill-opacity:1;stroke:#000000;stroke-width:0.60000002;stroke-miterlimit:4;stroke-dasharray:none"
         xml:space="preserve"><tspan
           style="fill:#ff0000;stroke:#000000;stroke-width:0.60000002;stroke-miterlimit:4;stroke-dasharray:none"
           y="160.5948"
           x="34.354473"
           id="tspan1821"
           sodipodi:role="line">GOWSH</tspan></text>
      <path
         transform="scale(0.26458333)"
         inkscape:connector-curvature="0"
         id="path1958"
         d="m 251.62239,583.51571 c -2.19963,-2.83007 -3.99933,-5.33148 -3.99933,-5.5587 0,-0.54258 3.96899,-5.71963 4.20445,-5.48417 0.0998,0.0998 1.4338,3.08991 2.96453,6.64477 l 2.78314,6.46339 -0.97673,1.54014 -0.97673,1.54014 z"
         style="fill:#000000;fill-opacity:1;stroke:#000000;stroke-width:0.80989879;stroke-miterlimit:4;stroke-dasharray:none;stroke-opacity:1" />
      <path
         transform="scale(0.26458333)"
         inkscape:connector-curvature="0"
         id="path1960"
         d="m 287.26138,567.19623 c -4.41715,-4.16314 -8.11153,-7.72769 -8.20975,-7.92121 -0.23789,-0.46875 3.80054,-0.62906 6.89806,-0.27383 l 2.43376,0.27911 1.71201,3.92857 c 0.94161,2.16072 2.53352,5.60754 3.53758,7.65961 1.00406,2.05207 1.7882,3.7684 1.74254,3.81407 -0.0457,0.0457 -3.69706,-3.32318 -8.1142,-7.48632 z"
         style="fill:#000000;fill-opacity:1;stroke:#000000;stroke-width:0.80989879;stroke-miterlimit:4;stroke-dasharray:none;stroke-opacity:1" />
      <path
         transform="scale(0.26458333)"
         inkscape:connector-curvature="0"
         id="path1962"
         d="m 205.40496,584.4586 c -3.55566,-3.15405 -8.36128,-6.53318 -11.62807,-8.17642 -2.61449,-1.31512 -2.78985,-0.47783 1.52072,-7.26108 l 2.85312,-4.48975 1.4326,0.72504 c 2.03552,1.03019 6.16591,3.71112 7.95045,5.16043 l 1.51785,1.23273 -0.005,7.3868 c -0.003,4.06274 -0.12355,7.56569 -0.26786,7.78432 -0.16711,0.25316 -1.39209,-0.60459 -3.37335,-2.36207 z"
         style="fill:#000000;fill-opacity:1;stroke:#000000;stroke-width:0.80989879;stroke-miterlimit:4;stroke-dasharray:none;stroke-opacity:1" />
      <path
         transform="scale(0.26458333)"
         inkscape:connector-curvature="0"
         id="path1964"
         d="m 531.47802,570.88625 c 0.0926,-0.23544 1.29444,-2.90603 2.67077,-5.93465 1.37633,-3.02862 2.51558,-5.54728 2.53166,-5.59703 0.0511,-0.15808 7.47695,1.32144 7.68707,1.53156 0.41184,0.41184 -11.24011,10.42818 -12.13105,10.42818 -0.50975,0 -0.85105,-0.19263 -0.75845,-0.42806 z"
         style="fill:#000000;fill-opacity:1;stroke:#000000;stroke-width:1.14536989;stroke-miterlimit:4;stroke-dasharray:none;stroke-opacity:1" />
      <path
         transform="scale(0.26458333)"
         inkscape:connector-curvature="0"
         id="path1966"
         d="m 589.62812,563.23362 v -2.00892 h 1.66271 c 1.3166,0 1.64479,0.0232 1.57658,0.1116 -0.41526,0.53801 -3.17912,3.90625 -3.20532,3.90625 -0.0187,0 -0.034,-0.90402 -0.034,-2.00893 z"
         style="fill:#000000;fill-opacity:1;stroke:#000000;stroke-width:0.2024747;stroke-miterlimit:4;stroke-dasharray:none;stroke-opacity:1" />
      <g
         id="g1956">
        <g
           id="g1800"
           style="fill:#000000;stroke:#808080">
          <g
             id="g1658"
             style="fill:#000000;stroke:#808080">
            <path
               style="fill:#000000;stroke:#808080;stroke-width:0.26458332px;stroke-linecap:butt;stroke-linejoin:miter;stroke-opacity:1"
               d="m 84.991709,130.22381 c 1.262072,-9.83231 -0.267214,-22.70975 8.285355,-24.58879 l 28.330566,-0.80181 c 6.17226,0.55553 8.91678,12.64073 11.22532,26.19241 l 2.27179,6.68174 c -3.26499,8.70743 -13.24095,16.85561 -24.9897,24.85606 -11.58648,-5.80875 -20.058967,-14.25241 -27.025932,-23.96997 z"
               id="path1545"
               inkscape:connector-curvature="0"
               sodipodi:nodetypes="cccccccc" />
            <g
               id="g1562"
               style="fill:#000000;stroke:#808080">
              <path
                 inkscape:connector-curvature="0"
                 id="path1547"
                 d="m 89.268021,129.95654 3.875408,7.08265 c 0,0 -1.737252,-0.66818 -3.875408,0.8018 -2.138156,1.46999 -6.815373,-5.74629 -6.815373,-5.74629 0,0 4.142677,-3.74177 5.746295,-3.0736 1.603618,0.66817 1.069078,0.93544 1.069078,0.93544 z"
                 style="fill:#000000;stroke:#808080;stroke-width:0.26458332px;stroke-linecap:butt;stroke-linejoin:miter;stroke-opacity:1" />
              <path
                 inkscape:connector-curvature="0"
                 id="path1549"
                 d="m 88.466212,137.84099 c 0,0 0.668173,9.35444 0.935445,9.62171 0.267269,0.26727 0.668173,0.4009 3.741772,-0.66818 3.073601,-1.06908 3.34087,-1.33634 3.34087,-1.33634 l -3.34087,-8.41899"
                 style="fill:#000000;stroke:#808080;stroke-width:0.26458332px;stroke-linecap:butt;stroke-linejoin:miter;stroke-opacity:1" />
              <path
                 sodipodi:nodetypes="ccscc"
                 inkscape:connector-curvature="0"
                 id="path1551"
                 d="m 90.470735,147.4627 5.612659,16.70434 c 0,0 0.267269,1.06908 2.138156,0.80181 1.87089,-0.26727 1.87089,-2.27179 1.87089,-2.27179 0,0 -4.242907,-15.63526 -4.510176,-16.83798"
                 style="fill:#000000;stroke:#808080;stroke-width:0.26458332px;stroke-linecap:butt;stroke-linejoin:miter;stroke-opacity:1" />
            </g>
            <g
               id="g1567"
               style="fill:#000000;stroke:#808080">
              <path
                 inkscape:connector-curvature="0"
                 id="path1553"
                 d="m 124.01306,129.68927 c 0,0 -1.33634,-1.06907 3.74177,0.13364 5.07812,1.20271 1.87089,3.74177 1.87089,3.74177 l -0.80181,7.08265 c 0,0 -2.80633,-3.20724 -4.94448,-3.34087 -2.13816,-0.13364 -2.53906,0.13363 -2.53906,0.13363 z"
                 style="fill:#000000;stroke:#808080;stroke-width:0.26458332px;stroke-linecap:butt;stroke-linejoin:miter;stroke-opacity:1" />
              <path
                 inkscape:connector-curvature="0"
                 id="path1555"
                 d="m 121.34037,137.44009 -3.34087,9.35443 c 0,0 3.8754,0.80181 4.67721,1.87089 0.80181,1.06908 1.87089,2.13816 1.87089,2.13816 0,0 1.20271,-10.42351 4.27631,-10.15624"
                 style="fill:#000000;stroke:#808080;stroke-width:0.26458332px;stroke-linecap:butt;stroke-linejoin:miter;stroke-opacity:1" />
              <path
                 sodipodi:nodetypes="ccccc"
                 inkscape:connector-curvature="0"
                 id="path1557"
                 d="m 123.45647,149.68378 -4.65846,14.90713 c 0,0 -1.76713,2.24354 -3.1373,0.4482 -1.37016,-1.79539 -0.95108,-1.30277 -0.95108,-1.30277 l 4.21113,-16.6511"
                 style="fill:#000000;stroke:#808080;stroke-width:0.26458332px;stroke-linecap:butt;stroke-linejoin:miter;stroke-opacity:1" />
            </g>
            <path
               style="fill:#000000;stroke:#808080;stroke-width:0.26458332px;stroke-linecap:butt;stroke-linejoin:miter;stroke-opacity:1"
               d="m 89.669621,130.71249 6.280137,11.13755 c 0,0 2.271792,-8.28536 5.211762,-8.41899 2.93996,-0.13364 5.07812,-0.13364 5.07812,-0.13364 0,0 4.00904,14.9671 -1.06908,22.18337 l -5.07812,7.21628"
               id="path1569"
               inkscape:connector-curvature="0"
               sodipodi:nodetypes="ccccsc" />
            <path
               inkscape:connector-curvature="0"
               id="path1571"
               d="m 123.84637,129.95654 -5.82441,11.8935 c 0,0 -1.98031,-8.28536 -4.54305,-8.41899 -2.56274,-0.13364 -4.42656,-0.13364 -4.42656,-0.13364 0,0 -3.49465,14.9671 0.93191,22.18337 l 4.72537,8.25556"
               style="fill:#000000;stroke:#808080;stroke-width:0.24702673px;stroke-linecap:butt;stroke-linejoin:miter;stroke-opacity:1"
               sodipodi:nodetypes="cccccc" />
            <g
               style="display:inline;fill:#000000;stroke:#808080"
               id="g1611">
              <path
                 sodipodi:nodetypes="cccscsccccc"
                 style="fill:#000000;stroke:#808080;stroke-width:0.26458332px;stroke-linecap:butt;stroke-linejoin:miter;stroke-opacity:1"
                 d="m 83.089108,138.59345 h -2e-6 L 67.657738,117.46131 c 0,0 -9.449405,1.13393 -10.205357,3.96875 -0.755954,2.83482 1.322917,15.11904 1.889879,14.93006 0.566965,-0.18899 1.322917,-1.88988 4.913691,-3.02381 3.590774,-1.13393 6.614583,-0.18899 6.614583,-0.18899 l -2.83482,-10.96131 c 0,0 8.315476,30.99405 13.229167,33.63988 4.91369,2.64584 7.48208,2.99814 11.150295,5.66964 3.668218,2.67151 2.362354,-1.08668 2.362354,-1.08668"
                 id="path1573"
                 inkscape:connector-curvature="0" />
              <path
                 style="fill:#000000;stroke:#808080;stroke-width:0.26458332px;stroke-linecap:butt;stroke-linejoin:miter;stroke-opacity:1"
                 d="m 60.336096,135.36875 c 0,0 10.356694,26.59332 11.024867,25.12334 0.668174,-1.46999 0.868627,-6.81538 3.207234,-7.41673 2.33861,-0.60136 4.009044,-0.53454 4.009044,-0.53454"
                 id="path1575"
                 inkscape:connector-curvature="0" />
              <path
                 style="fill:#000000;stroke:#808080;stroke-width:0.26458332px;stroke-linecap:butt;stroke-linejoin:miter;stroke-opacity:1"
                 d="m 71.862722,158.99144 9.496652,13.79613 c 0,0 2.882069,-1.88988 3.118302,-3.63802 0.236236,-1.74814 -0.614209,-3.59077 -0.614209,-3.59077 l -7.60677,-12.85119"
                 id="path1577"
                 inkscape:connector-curvature="0" />
              <path
                 style="fill:#000000;stroke:#808080;stroke-width:0.26458332px;stroke-linecap:butt;stroke-linejoin:miter;stroke-opacity:1"
                 d="m 81.359374,172.78757 7.843007,11.48103 3.732514,-0.0945 c 0,0 -1.133928,-3.87425 -2.220611,-4.86644 -1.086681,-0.99219 -6.378348,-9.49665 -6.378348,-9.49665"
                 id="path1579"
                 inkscape:connector-curvature="0" />
            </g>
            <g
               style="display:inline;fill:#000000;stroke:#808080"
               id="g1605"
               transform="matrix(-1.0373147,0,0,1,221.14407,0)">
              <path
                 style="fill:#000000;stroke:#808080;stroke-width:0.26458332px;stroke-linecap:butt;stroke-linejoin:miter;stroke-opacity:1"
                 d="m 83.089106,138.59345 v 0 L 67.657738,117.46131 c 0,0 -9.449405,1.13393 -10.205357,3.96875 -0.755954,2.83482 1.322917,15.11904 1.889879,14.93006 0.566965,-0.18899 1.322917,-1.88988 4.913691,-3.02381 3.590774,-1.13393 6.614583,-0.18899 6.614583,-0.18899 l -2.83482,-10.96131 c 0,0 8.315476,30.99405 13.229167,33.63988 4.91369,2.64584 7.48208,2.99814 11.150295,5.66964 3.668218,2.67151 3.605083,-1.2986 3.605083,-1.2986"
                 id="path1597"
                 inkscape:connector-curvature="0"
                 sodipodi:nodetypes="cccscsccccc" />
              <path
                 style="fill:#000000;stroke:#808080;stroke-width:0.26458332px;stroke-linecap:butt;stroke-linejoin:miter;stroke-opacity:1"
                 d="m 60.336096,135.36875 c 0,0 10.356694,26.59332 11.024867,25.12334 0.668174,-1.46999 0.868627,-6.81538 3.207234,-7.41673 2.33861,-0.60136 4.009044,-0.53454 4.009044,-0.53454"
                 id="path1599"
                 inkscape:connector-curvature="0" />
              <path
                 style="fill:#000000;stroke:#808080;stroke-width:0.26458332px;stroke-linecap:butt;stroke-linejoin:miter;stroke-opacity:1"
                 d="m 71.862722,158.99144 9.496652,13.79613 c 0,0 2.882069,-1.88988 3.118302,-3.63802 0.236236,-1.74814 -0.614209,-3.59077 -0.614209,-3.59077 l -7.60677,-12.85119"
                 id="path1601"
                 inkscape:connector-curvature="0" />
              <path
                 style="fill:#000000;stroke:#808080;stroke-width:0.26458332px;stroke-linecap:butt;stroke-linejoin:miter;stroke-opacity:1"
                 d="m 81.359374,172.78757 8.207386,11.9535 3.64142,-1e-5 c 0,0 -1.407213,-4.44121 -2.493896,-5.4334 -1.086681,-0.99219 -6.378348,-9.49665 -6.378348,-9.49665"
                 id="path1603"
                 inkscape:connector-curvature="0"
                 sodipodi:nodetypes="cccsc" />
            </g>
            <ellipse
               style="fill:#000000;fill-opacity:1;stroke:#808080;stroke-width:0.26499999;stroke-miterlimit:4;stroke-dasharray:none;stroke-opacity:1"
               id="path1625"
               cx="99.407738"
               cy="117.03609"
               rx="6.7090774"
               ry="6.4728417" />
            <ellipse
               ry="6.4728417"
               rx="6.7090774"
               cy="115.97775"
               cx="112.92039"
               id="ellipse1627"
               style="fill:#000000;fill-opacity:1;stroke:#808080;stroke-width:0.26499999;stroke-miterlimit:4;stroke-dasharray:none;stroke-opacity:1" />
            <ellipse
               style="fill:#000000;fill-opacity:1;stroke:#808080;stroke-width:0.26499999;stroke-miterlimit:4;stroke-dasharray:none;stroke-opacity:1"
               id="path1629"
               cx="88.824409"
               cy="113.30357"
               rx="2.9293153"
               ry="3.5907736" />
            <ellipse
               style="fill:#000000;fill-opacity:1;stroke:#808080;stroke-width:0.26499999;stroke-miterlimit:4;stroke-dasharray:none;stroke-opacity:1"
               id="path1631"
               cx="123.83444"
               cy="112.16964"
               rx="3.1655507"
               ry="3.4017856" />
          </g>
          <g
             transform="matrix(-0.98841386,0,0,1.0000291,218.26274,0.89468797)"
             id="g1681"
             style="display:inline;fill:#000000;stroke:#808080">
            <path
               sodipodi:nodetypes="cscsccccccccccccc"
               inkscape:connector-curvature="0"
               id="path1675"
               d="m 70.669935,158.00737 c 0,0 -12.650592,-7.3314 -14.493224,-11.06392 -1.842635,-3.73252 -1.559153,-7.65402 -1.559153,-7.65402 0,0 -0.472469,-4.53571 1.511906,-5.95312 1.984375,-1.41741 2.173362,-1.7009 2.173362,-1.7009 l -0.472469,-1.72451 c 0,0 -4.142592,-1.72502 -6.247339,-1.59138 -2.104747,0.13363 -5.378799,1.60361 -5.378799,1.60361 -0.0071,-0.0498 -7.000026,4.18646 -7.91786,6.38107 -0.948227,0.95461 -2.320983,4.13293 -2.305199,4.94449 0.06682,0.73499 -0.567949,3.34086 -0.567949,3.34086 0,0 3.808593,-3.60814 6.748555,-1.40317 2.939966,2.20498 2.739515,3.00679 2.739515,3.00679 4.47e-4,5e-5 0.140682,-0.91239 0.868624,-1.87089 l 1.536801,-1.70384 c 0,0 2.271792,-4.71063 2.338609,-6.9156 0.06682,-2.20498 -2.605878,-6.34765 -2.605878,-6.34765"
               style="fill:#000000;stroke:#808080;stroke-width:0.26458332px;stroke-linecap:butt;stroke-linejoin:miter;stroke-opacity:1" />
            <path
               sodipodi:nodetypes="ccccc"
               inkscape:connector-curvature="0"
               id="path1677"
               d="m 44.901281,146.19317 4.855792,11.22547 c 0,0 -1.561659,2.87324 -1.219739,5.61266 -7.094151,-3.14034 -8.150359,-6.54821 -8.150359,-6.54821 0,0 -7.245553,-8.6863 -6.10966,-10.28992"
               style="fill:#000000;stroke:#808080;stroke-width:0.26458332px;stroke-linecap:butt;stroke-linejoin:miter;stroke-opacity:1" />
            <path
               inkscape:connector-curvature="0"
               id="path1679"
               d="m 49.757073,157.41864 c 0,0 4.675667,2.13816 6.301985,4.47677 1.626319,2.3386 10.774363,15.43481 10.774363,15.43481 0,0 -1.694083,1.1359 -4.811193,-1.06908 -3.117112,-2.20497 -10.842126,-12.02713 -10.842126,-12.02713 0,0 -1.287501,-1.00226 -1.62632,-0.53453 l -1.016448,-0.66818"
               style="fill:#000000;stroke:#808080;stroke-width:0.26644954px;stroke-linecap:butt;stroke-linejoin:miter;stroke-opacity:1" />
          </g>
          <path
             inkscape:connector-curvature="0"
             id="path1687"
             d="m 184.38256,147.09211 -1.12273,-1.60367"
             style="fill:#000000;stroke:#808080;stroke-width:0.26458332px;stroke-linecap:butt;stroke-linejoin:miter;stroke-opacity:1" />
          <g
             id="g1699"
             style="fill:#000000;stroke:#808080">
            <g
               style="display:inline;fill:#000000;stroke:#808080"
               id="g1673">
              <path
                 sodipodi:nodetypes="cscsccccccccccccc"
                 inkscape:connector-curvature="0"
                 id="path1660"
                 d="m 69.453124,158.141 c 0,0 -11.433781,-7.46503 -13.276413,-11.19755 -1.842635,-3.73252 -1.559153,-7.65402 -1.559153,-7.65402 0,0 -0.472469,-4.53571 1.511906,-5.95312 1.984375,-1.41741 2.173362,-1.7009 2.173362,-1.7009 l -0.472469,-1.72451 c 0,0 -4.142592,-1.72502 -6.247339,-1.59138 -2.104747,0.13363 -5.378799,1.60361 -5.378799,1.60361 -0.0071,-0.0498 -7.000026,4.18646 -7.91786,6.38107 -0.948227,0.95461 -2.320983,4.13293 -2.305199,4.94449 0.06682,0.73499 -0.567949,3.34086 -0.567949,3.34086 0,0 3.808593,-3.60814 6.748555,-1.40317 2.939966,2.20498 2.739515,3.00679 2.739515,3.00679 4.47e-4,5e-5 0.140682,-0.91239 0.868624,-1.87089 l 1.536801,-1.70384 c 0,0 2.271792,-4.71063 2.338609,-6.9156 0.06682,-2.20498 -2.605878,-6.34765 -2.605878,-6.34765"
                 style="fill:#000000;stroke:#808080;stroke-width:0.26458332px;stroke-linecap:butt;stroke-linejoin:miter;stroke-opacity:1" />
              <path
                 sodipodi:nodetypes="ccccc"
                 inkscape:connector-curvature="0"
                 id="path1664"
                 d="m 44.901281,146.19317 -2.241672,14.34199 -1.300323,5.89696 c -0.33409,0.002 -3.521177,-3.9687 -3.521177,-5.18917 0,0 -3.560791,-15.04978 -2.424898,-16.6534"
                 style="fill:#000000;stroke:#808080;stroke-width:0.26458332px;stroke-linecap:butt;stroke-linejoin:miter;stroke-opacity:1" />
              <path
                 sodipodi:nodetypes="ccccccc"
                 inkscape:connector-curvature="0"
                 id="path1668"
                 d="m 42.486643,161.10294 c 0,0 3.29391,1.85468 4.513569,4.19329 1.21966,2.3386 8.080247,15.43481 8.080247,15.43481 0,0 -1.270479,1.1359 -3.60816,-1.06908 -2.337682,-2.20497 -8.131066,-12.02713 -8.131066,-12.02713 0,0 -0.965563,-1.00226 -1.219661,-0.53453 l -0.762286,-0.66818"
                 style="fill:#000000;stroke:#808080;stroke-width:0.23074456px;stroke-linecap:butt;stroke-linejoin:miter;stroke-opacity:1" />
            </g>
            <path
               style="display:inline;fill:#000000;stroke:#808080;stroke-width:0.26458332px;stroke-linecap:butt;stroke-linejoin:miter;stroke-opacity:1"
               d="m 48.943733,139.44461 c 0,0 1.703843,2.57247 3.507912,2.83974 1.804069,0.26727 2.271789,-0.30068 2.271789,-0.30068"
               id="path1662"
               inkscape:connector-curvature="0" />
          </g>
          <path
             inkscape:connector-curvature="0"
             id="path1701"
             d="m 162.49987,148.13087 c 0,0 2.13816,0.56795 4.81085,-0.96885 2.6727,-1.5368 4.19341,-3.64474 4.19341,-3.64474"
             style="fill:#000000;stroke:#808080;stroke-width:0.26458332px;stroke-linecap:butt;stroke-linejoin:miter;stroke-opacity:1" />
          <g
             id="g1724"
             style="fill:#000000;stroke:#808080">
            <g
               id="g1718"
               style="fill:#000000;stroke:#808080">
              <path
                 inkscape:connector-curvature="0"
                 id="path1709"
                 d="m 43.609003,168.81882 -1.228424,9.5439 c 0,0 -0.141739,3.1183 1.41741,3.40179 1.559153,0.28348 3.260045,-2.69308 3.260045,-2.69308 v -5.24442"
                 style="fill:#000000;stroke:#808080;stroke-width:0.26458332px;stroke-linecap:butt;stroke-linejoin:miter;stroke-opacity:1" />
              <path
                 sodipodi:nodetypes="cscc"
                 inkscape:connector-curvature="0"
                 id="path1711"
                 d="m 44.270461,162.10975 c -0.236236,-0.23624 1.157839,-2.31748 2.528005,-5.81376 1.370163,-3.49628 5.692978,-10.34473 5.692978,-10.34473 0,0 1.272887,-0.75694 2.832037,-1.18216"
                 style="fill:#000000;stroke:#808080;stroke-width:0.26458332px;stroke-linecap:butt;stroke-linejoin:miter;stroke-opacity:1" />
              <path
                 inkscape:connector-curvature="0"
                 id="path1713"
                 d="m 58.019343,149.54204 c 0,0 -5.669642,14.22135 -5.953125,14.45758 -0.283479,0.23624 -3.212795,4.58297 -3.212795,4.58297"
                 style="fill:#000000;stroke:#808080;stroke-width:0.26458332px;stroke-linecap:butt;stroke-linejoin:miter;stroke-opacity:1" />
            </g>
          </g>
          <path
             inkscape:connector-curvature="0"
             id="path1736"
             d="m 84.991709,130.22381 c 0,0 0.05293,-5.58096 -2.781887,-8.13229 -2.834823,-2.55134 -4.15774,-3.68527 -5.197174,-2.92932 -1.039434,0.75595 -2.740326,4.34673 -2.834822,5.76414"
             style="fill:#000000;stroke:#808080;stroke-width:0.26458332px;stroke-linecap:butt;stroke-linejoin:miter;stroke-opacity:1" />
          <path
             inkscape:connector-curvature="0"
             id="path1738"
             d="m 74.177826,124.92634 -0.188987,1.27567"
             style="fill:#000000;stroke:#808080;stroke-width:0.26458332px;stroke-linecap:butt;stroke-linejoin:miter;stroke-opacity:1" />
          <path
             inkscape:connector-curvature="0"
             id="path1740"
             d="m 132.83295,131.02562 1.40317,0.20045 c 0,0 4.00904,-17.23888 6.08038,-17.7066 2.07134,-0.46773 2.73951,-2.6727 4.34313,0.4009 1.60362,3.0736 1.40317,9.88897 1.40317,9.88897"
             style="fill:#000000;stroke:#808080;stroke-width:0.26458332px;stroke-linecap:butt;stroke-linejoin:miter;stroke-opacity:1" />
          <path
             sodipodi:nodetypes="cc"
             inkscape:connector-curvature="0"
             id="path1742"
             d="m 155.48996,154.26674 1.84263,16.39471"
             style="fill:#000000;stroke:#808080;stroke-width:0.26458332px;stroke-linecap:butt;stroke-linejoin:miter;stroke-opacity:1" />
          <path
             inkscape:connector-curvature="0"
             id="path1746"
             d="m 158.27753,176.14211 -0.51972,9.16592 c 0,0 -0.42522,1.22842 -1.08668,0.75596 -0.66146,-0.47247 -0.61421,-2.92932 -0.61421,-2.92932 l 0.0472,-5.38616"
             style="fill:#000000;stroke:#808080;stroke-width:0.26458332px;stroke-linecap:butt;stroke-linejoin:miter;stroke-opacity:1" />
          <path
             inkscape:connector-curvature="0"
             id="path1748"
             d="m 71.862722,158.99144 c 0,0 3.306831,12.05779 2.571839,16.06684 -0.734991,4.00904 -0.734991,6.61492 -0.734991,6.61492 l 2.271792,0.73499 0.668173,-5.21176 c 0,0 0.06682,-1.26953 -0.133633,-5.0113 -0.200453,-3.74178 -1.202713,-8.21854 -1.202713,-8.21854"
             style="fill:#000000;stroke:#808080;stroke-width:0.26458332px;stroke-linecap:butt;stroke-linejoin:miter;stroke-opacity:1" />
        </g>
        <path
           style="fill:#ffffff;fill-opacity:1;stroke:#808080;stroke-width:0.71541053;stroke-miterlimit:4;stroke-dasharray:none;stroke-opacity:1"
           d="m 367.01663,464.51671 c -4.42238,-1.57704 -9.76705,-6.02933 -12.29058,-10.23846 -7.42545,-12.38533 -2.50159,-27.24159 11.09405,-33.47297 5.9167,-2.71183 13.77804,-2.67284 19.84681,0.0985 5.24957,2.3972 10.31736,7.33941 12.55575,12.24462 2.48167,5.43831 2.33202,13.61343 -0.34914,19.0733 -2.50452,5.10015 -7.87794,10.02048 -13.06109,11.95974 -4.66343,1.74481 -13.38253,1.9091 -17.7958,0.33531 z"
           id="path1802"
           inkscape:connector-curvature="0"
           transform="scale(0.26458333)" />
        <path
           style="fill:#ffffff;fill-opacity:1;stroke:#808080;stroke-width:0.71541053;stroke-miterlimit:4;stroke-dasharray:none;stroke-opacity:1"
           d="m 420.75554,461.34459 c -6.79379,-1.71385 -13.16053,-6.88305 -16.27633,-13.21486 -1.46219,-2.97139 -1.74829,-4.60481 -1.74829,-9.98137 0,-5.78886 0.21057,-6.80872 2.11604,-10.24882 2.75391,-4.97183 8.03232,-9.66031 12.9453,-11.4985 5.22673,-1.95557 12.49582,-1.96002 17.70544,-0.0109 19.66803,7.35875 21.07361,33.60781 2.29467,42.85265 -4.90898,2.41668 -12.21541,3.31804 -17.03683,2.10175 z"
           id="path1804"
           inkscape:connector-curvature="0"
           transform="scale(0.26458333)" />
        <path
           style="fill:#ffffff;fill-opacity:1;stroke:#808080;stroke-width:0.71541053;stroke-miterlimit:4;stroke-dasharray:none;stroke-opacity:1"
           d="m 462.33946,434.03879 c -3.44698,-2.32291 -5.2718,-5.84537 -5.2718,-10.17614 0,-6.73367 4.69819,-11.78572 10.96022,-11.78572 11.03251,0 15.17231,15.65179 5.80879,21.96186 -3.23983,2.18333 -8.25738,2.18333 -11.49721,0 z"
           id="path1806"
           inkscape:connector-curvature="0"
           transform="scale(0.26458333)" />
        <path
           style="fill:#ffffff;fill-opacity:1;stroke:#808080;stroke-width:0.71541053;stroke-miterlimit:4;stroke-dasharray:none;stroke-opacity:1"
           d="m 330.26007,438.77757 c -3.29881,-2.77577 -4.56076,-5.72638 -4.57247,-10.69104 -0.012,-5.09092 1.56715,-8.36473 5.22328,-10.8286 7.42553,-5.00406 16.19186,2.79057 14.77383,13.13622 -0.88226,6.4368 -4.74037,10.25421 -10.36351,10.25421 -2.01931,0 -3.47908,-0.53959 -5.06113,-1.87079 z"
           id="path1808"
           inkscape:connector-curvature="0"
           transform="scale(0.26458333)" />
        <path
           style="fill:#000000;fill-opacity:1;stroke:#000000;stroke-width:1.90894973;stroke-miterlimit:4;stroke-dasharray:none;stroke-opacity:1"
           d="m 252.31088,533.92093 -22.97918,-21.81517 3.58738,-2.43768 c 6.10317,-4.14721 14.32683,-6.46991 23.18892,-6.54949 12.64691,-0.11356 11.66738,-1.11601 18.27122,18.69854 3.18562,9.55833 7.26415,21.12898 9.0634,25.71254 l 3.27137,8.33376 -5.71196,-0.0637 -5.71196,-0.0637 z"
           id="path1833"
           inkscape:connector-curvature="0"
           transform="scale(0.26458333)" />
        <path
           style="fill:#000000;fill-opacity:1;stroke:#000000;stroke-width:1.90894973;stroke-miterlimit:4;stroke-dasharray:none;stroke-opacity:1"
           d="m 226.72239,550.88404 c -21.32288,-27.31738 -21.45115,-27.5924 -18.15617,-38.92674 1.25898,-4.33074 2.43053,-6.05014 5.82168,-8.54401 4.81176,-3.53861 4.90478,-3.4698 6.72275,4.97297 1.67305,7.7698 2.59981,9.08001 4.83911,6.8413 1.82722,-1.82675 1.91156,-1.64059 22.57064,49.81206 1.85426,4.61814 1.85316,4.6381 -0.41312,7.48028 l -2.27234,2.84979 z"
           id="path1835"
           inkscape:connector-curvature="0"
           transform="scale(0.26458333)" />
        <path
           style="fill:#000000;fill-opacity:1;stroke:#000000;stroke-width:1.90894973;stroke-miterlimit:4;stroke-dasharray:none;stroke-opacity:1"
           d="m 540.70765,557.17084 c -1.25007,-0.24077 -2.27285,-0.6243 -2.27285,-0.85229 0,-0.22798 1.7671,-4.85569 3.92688,-10.2838 2.15978,-5.42811 6.32738,-16.91511 9.26134,-25.52666 2.93396,-8.61155 5.43724,-15.79874 5.56286,-15.97154 0.12561,-0.1728 3.00468,-0.7066 6.39792,-1.18623 9.0103,-1.2736 18.4369,0.3352 27.24721,4.65017 l 7.44442,3.64601 -3.40381,3.26363 c -1.87209,1.79499 -13.26919,12.19837 -25.32688,23.11862 -22.23275,20.13545 -22.55817,20.35146 -28.83709,19.14209 z"
           id="path1837"
           inkscape:connector-curvature="0"
           transform="scale(0.26458333)" />
        <path
           style="fill:#000000;fill-opacity:1;stroke:#000000;stroke-width:1.90894973;stroke-miterlimit:4;stroke-dasharray:none;stroke-opacity:1"
           d="m 565.9853,592.22892 c 0.30976,-0.83337 4.38307,-10.15203 9.0518,-20.70812 4.66873,-10.5561 12.07891,-27.92447 16.46707,-38.5964 7.43803,-18.08915 8.09615,-19.29699 9.71578,-17.83125 2.53807,2.29693 3.67168,1.01314 5.0659,-5.73702 0.68395,-3.31134 1.50359,-6.02063 1.82143,-6.02063 1.45241,0 8.31245,6.55415 9.73077,9.29687 0.86864,1.67978 1.65465,5.69558 1.74669,8.92401 l 0.16734,5.86988 -12.6269,15.69696 c -12.20209,15.16885 -12.75436,15.6982 -16.41498,15.73381 l -3.78807,0.0369 v 4.58217 c 0,4.27934 -0.61213,5.3308 -9.26214,15.9099 -10.81069,13.22163 -12.51046,15.0915 -11.67469,12.84296 z"
           id="path1839"
           inkscape:connector-curvature="0"
           transform="scale(0.26458333)" />
        <path
           style="fill:#000000;fill-opacity:1;stroke:#000000;stroke-width:1.90894973;stroke-miterlimit:4;stroke-dasharray:none;stroke-opacity:1"
           d="m 618.37731,552.7079 c 1.08166,-2.84671 2.48193,-10.00616 3.1117,-15.9099 l 1.14503,-10.73407 9.07539,-11.37026 c 4.99147,-6.25365 9.26546,-11.18021 9.49776,-10.9479 0.23231,0.2323 -0.37207,2.94262 -1.34305,6.02293 -2.09451,6.64453 -1.33894,11.34227 3.92062,24.37645 l 3.26094,8.08122 -14.98905,7.82869 c -8.24397,4.30577 -15.13685,7.82868 -15.31752,7.82868 -0.18066,0 0.55652,-2.32913 1.63818,-5.17584 z"
           id="path1841"
           inkscape:connector-curvature="0"
           transform="scale(0.26458333)" />
        <path
           style="fill:#000000;fill-opacity:1;stroke:#000000;stroke-width:1.90894973;stroke-miterlimit:4;stroke-dasharray:none;stroke-opacity:1"
           d="m 195.48394,531.05534 c -6.20259,-2.73034 -9.96398,-4.93989 -9.75142,-5.72827 3.39884,-12.60653 3.44182,-13.23472 1.33289,-19.48161 -1.11901,-3.31461 -1.94618,-6.11495 -1.83816,-6.22298 0.10803,-0.10802 4.48172,5.32344 9.71932,12.0699 8.57838,11.04967 9.59789,12.81884 10.27887,17.83704 0.41578,3.0639 0.66596,5.66074 0.55596,5.77075 -0.11001,0.11 -4.74387,-1.80017 -10.29746,-4.24483 z"
           id="path1843"
           inkscape:connector-curvature="0"
           transform="scale(0.26458333)" />
        <path
           style="fill:#000000;fill-opacity:1;stroke:#000000;stroke-width:1.90894973;stroke-miterlimit:4;stroke-dasharray:none;stroke-opacity:1"
           d="m 150.53623,548.89179 -15.65737,-2.70442 4.90496,-2.89665 c 5.97398,-3.52797 13.20894,-4.47079 17.40365,-2.26797 3.74246,1.96534 12.44254,10.8378 10.47913,10.68677 -0.81015,-0.0623 -8.51882,-1.3303 -17.13037,-2.81773 z"
           id="path1845"
           inkscape:connector-curvature="0"
           transform="scale(0.26458333)" />
        <path
           style="fill:#000000;fill-opacity:1;stroke:#000000;stroke-width:1.90894973;stroke-miterlimit:4;stroke-dasharray:none;stroke-opacity:1"
           d="m 507.44895,508.14611 c -4.10077,-11.87954 -4.12618,-12.03963 -1.81887,-11.46053 1.93563,0.48581 2.44959,0.1074 2.97418,-2.18977 0.54331,-2.37911 3.31268,-4.22461 19.32579,-12.87859 10.28039,-5.55584 19.19837,-10.27837 19.81773,-10.49451 1.41468,-0.49367 0.55786,0.69845 -19.59106,27.25749 l -16.54891,21.81374 z"
           id="path1847"
           inkscape:connector-curvature="0"
           transform="scale(0.26458333)" />
        <path
           style="fill:#000000;fill-opacity:1;stroke:#000000;stroke-width:1.90894973;stroke-miterlimit:4;stroke-dasharray:none;stroke-opacity:1"
           d="m 297.56667,499.69745 c -8.82664,-12.05461 -16.25366,-22.99096 -16.50447,-24.30302 -0.42112,-2.20294 0.89643,-1.73683 17.21172,6.08894 9.71727,4.66098 18.42231,8.89677 19.34455,9.41288 1.43431,0.80268 1.08789,1.41162 -2.3956,4.21103 -2.23981,1.79996 -4.07239,3.77654 -4.07239,4.3924 0,0.61586 1.13642,2.60967 2.52538,4.43069 2.84571,3.73092 2.94899,4.80167 1.18952,12.3329 l -1.25026,5.35163 z"
           id="path1849"
           inkscape:connector-curvature="0"
           transform="scale(0.26458333)" />
        <path
           style="fill:#000000;fill-opacity:1;stroke:#000000;stroke-width:0.67491567;stroke-miterlimit:4;stroke-dasharray:none;stroke-opacity:1"
           d="m 333.0277,558.90343 c -7.92805,-14.81701 -14.33212,-27.02253 -14.23127,-27.12339 0.10086,-0.10085 1.19865,1.15363 2.43954,2.78775 3.05242,4.01968 9.50376,11.95231 12.6748,15.58505 2.35365,2.69634 2.61604,3.15168 2.83748,4.92402 0.33548,2.68505 1.05677,3.48365 3.22431,3.56987 l 1.72662,0.0687 1.12537,3.35672 c 1.02826,3.06705 5.00097,22.76906 4.73266,23.47085 -0.0632,0.16525 -6.60146,-11.82255 -14.52951,-26.63955 z"
           id="path1851"
           inkscape:connector-curvature="0"
           transform="scale(0.26458333)" />
        <path
           style="fill:#000000;fill-opacity:1;stroke:#000000;stroke-width:0.67491567;stroke-miterlimit:4;stroke-dasharray:none;stroke-opacity:1"
           d="m 474.87889,579.50318 c 0.10947,-0.49107 0.63911,-3.30357 1.17697,-6.25 l 0.97794,-5.35714 5.74956,-5.89286 c 3.16226,-3.24107 6.45419,-6.73749 7.31541,-7.76982 0.86121,-1.03233 1.63009,-1.81271 1.70861,-1.73418 0.0785,0.0785 -3.74304,6.38744 -8.49238,14.01982 -4.74933,7.63237 -8.54559,13.47526 -8.43611,12.98418 z"
           id="path1853"
           inkscape:connector-curvature="0"
           transform="scale(0.26458333)" />
        <path
           style="fill:#000000;fill-opacity:1;stroke:#000000;stroke-width:1.90894973;stroke-miterlimit:4;stroke-dasharray:none;stroke-opacity:1"
           d="m 178.14147,623.89457 c -0.66549,-1.24349 -3.17113,-4.3575 -5.56809,-6.92004 l -4.35809,-4.65916 10.41914,-16.42905 c 5.73053,-9.03597 10.837,-16.8469 11.34771,-17.35761 1.00435,-1.00435 11.71679,5.50854 14.96617,9.09907 1.86955,2.06583 1.78238,2.32751 -6.6645,20.00728 l -8.55882,17.91407 -5.18677,0.30316 c -4.50267,0.26317 -5.34635,0.005 -6.39675,-1.95772 z"
           id="path1855"
           inkscape:connector-curvature="0"
           transform="scale(0.26458333)" />
        <path
           style="fill:#000000;fill-opacity:1;stroke:#000000;stroke-width:1.90894973;stroke-miterlimit:4;stroke-dasharray:none;stroke-opacity:1"
           d="m 211.62652,574.38212 c -0.073,-4.5496 -0.25339,-4.81811 -5.63619,-8.39101 -5.10214,-3.38661 -5.46364,-3.87373 -4.38344,-5.9066 2.25864,-4.25062 6.17771,-9.79174 6.92541,-9.79174 0.41435,0 1.35213,1.44555 2.08395,3.21233 0.73183,1.76678 2.80065,5.1382 4.59738,7.49204 l 3.26678,4.27973 -3.38922,6.90262 -3.38922,6.90263 z"
           id="path1857"
           inkscape:connector-curvature="0"
           transform="scale(0.26458333)" />
        <path
           style="fill:#000000;fill-opacity:1;stroke:#000000;stroke-width:0.47723743;stroke-miterlimit:4;stroke-dasharray:none;stroke-opacity:1"
           d="m 272.29591,599.19487 c 0,-0.63886 1.31016,-6.33742 2.03118,-8.83467 1.69361,-5.86573 3.84059,-9.42758 6.48472,-10.75816 0.71462,-0.35961 6.40301,-1.73161 6.55387,-1.58075 0.0644,0.0644 -14.45941,20.86267 -14.83292,21.241 -0.14912,0.15105 -0.23685,0.12607 -0.23685,-0.0674 z"
           id="path1859"
           inkscape:connector-curvature="0"
           transform="scale(0.26458333)" />
        <path
           style="fill:#000000;fill-opacity:1;stroke:#000000;stroke-width:0.47723743;stroke-miterlimit:4;stroke-dasharray:none;stroke-opacity:1"
           d="m 261.9135,596.56014 c -0.67723,-0.63379 -4.76988,-5.87063 -4.76988,-6.10342 0,-0.0816 0.33544,-0.68733 0.74542,-1.34602 l 0.74542,-1.19763 0.92657,2.01912 c 0.50962,1.11052 1.47315,3.18396 2.1412,4.60764 0.66804,1.42368 1.12548,2.58852 1.01653,2.58852 -0.10895,0 -0.47131,-0.2557 -0.80526,-0.56821 z"
           id="path1861"
           inkscape:connector-curvature="0"
           transform="scale(0.26458333)" />
        <circle
           style="fill:#000000;fill-opacity:1;stroke:#000000;stroke-width:0.5;stroke-miterlimit:4;stroke-dasharray:none;stroke-opacity:1"
           id="path1863"
           cx="99.304054"
           cy="119.07006"
           r="3.8754082" />
        <circle
           r="3.8754082"
           cy="118.12987"
           cx="113.12182"
           id="circle1865"
           style="fill:#000000;fill-opacity:1;stroke:#000000;stroke-width:0.5;stroke-miterlimit:4;stroke-dasharray:none;stroke-opacity:1" />
        <circle
           style="fill:#000000;fill-opacity:1;stroke:#000000;stroke-width:0.21656036;stroke-miterlimit:4;stroke-dasharray:none;stroke-opacity:1"
           id="circle1867"
           cx="123.50143"
           cy="113.37485"
           r="1.6785196" />
        <circle
           r="1.6785196"
           cy="114.23775"
           cx="89.435051"
           id="circle1869"
           style="fill:#000000;fill-opacity:1;stroke:#000000;stroke-width:0.21656036;stroke-miterlimit:4;stroke-dasharray:none;stroke-opacity:1" />
        <path
           style="fill:#000000;fill-opacity:1;stroke:#000000;stroke-width:2.69966269;stroke-miterlimit:4;stroke-dasharray:none;stroke-opacity:1"
           d="m 664.42144,549.12454 c 4.32271,-4.08017 7.25093,-5.67856 10.40303,-5.67856 5.91842,0 12.84296,3.11732 17.04416,7.67303 l 3.46331,3.75554 -18.46331,-0.0357 -18.4633,-0.0357 z"
           id="path1871"
           inkscape:connector-curvature="0"
           transform="scale(0.26458333)" />
        <path
           style="fill:#000000;fill-opacity:1;stroke:#000000;stroke-width:0.67491567;stroke-miterlimit:4;stroke-dasharray:none;stroke-opacity:1"
           d="m 545.51442,588.8112 c -4.15307,-5.72568 -7.4026,-10.46555 -7.22119,-10.53303 0.63118,-0.23479 5.85105,1.09282 6.96621,1.77177 2.60877,1.5883 4.96534,6.25072 6.75937,13.37322 0.68629,2.72464 1.20254,5.1439 1.14722,5.37613 -0.0553,0.23224 -3.49854,-4.2624 -7.65161,-9.98809 z"
           id="path1873"
           inkscape:connector-curvature="0"
           transform="scale(0.26458333)" />
        <path
           style="fill:#000000;fill-opacity:1;stroke:#000000;stroke-width:0.11930936;stroke-miterlimit:4;stroke-dasharray:none;stroke-opacity:1"
           d="m 562.08852,599.04829 c 0,-0.0195 0.60705,-1.26874 1.349,-2.77617 0.74195,-1.50743 1.3704,-2.80943 1.39655,-2.89335 l 0.0476,-0.15257 0.0787,0.18727 c 0.16533,0.39322 0.64754,0.64515 1.10604,0.57786 0.10395,-0.0153 0.18899,-0.0179 0.18899,-0.006 0,0.0279 -3.89008,4.80691 -4.04855,4.97367 -0.0651,0.0685 -0.11833,0.10859 -0.11833,0.0891 z"
           id="path1875"
           inkscape:connector-curvature="0"
           transform="scale(0.26458333)" />
        <path
           style="fill:#000000;fill-opacity:1;stroke:#000000;stroke-width:0.11930936;stroke-miterlimit:4;stroke-dasharray:none;stroke-opacity:1"
           d="m 553.25659,599.7281 c -0.21214,-0.29386 -0.38571,-0.5545 -0.38571,-0.57919 0,-0.0247 0.055,-0.0305 0.12218,-0.0129 0.0672,0.0176 0.18324,-0.0108 0.25786,-0.0631 0.0746,-0.0523 0.15731,-0.0704 0.18375,-0.0404 0.065,0.0739 0.28251,1.155 0.24078,1.19673 -0.0182,0.0182 -0.20671,-0.2073 -0.41886,-0.50116 z"
           id="path1877"
           inkscape:connector-curvature="0"
           transform="scale(0.26458333)" />
      </g>
      <path
         sodipodi:nodetypes="csc"
         inkscape:connector-curvature="0"
         id="path1968"
         d="m 155.65683,172.97883 c 0,0 -2.71185,-9.88087 -2.9123,-11.48448 -0.20045,-1.60362 -0.46772,-4.94449 -0.46772,-4.94449"
         style="fill:none;stroke:#999999;stroke-width:0.26458332px;stroke-linecap:butt;stroke-linejoin:miter;stroke-opacity:1" />
      <path
         transform="scale(0.26458333)"
         inkscape:connector-curvature="0"
         id="path1984"
         d="m 585.0872,639.61935 c -2.6889,-10.09384 -6.01156,-23.24896 -6.69856,-26.52101 -0.68352,-3.25548 -2.45638,-21.02192 -2.12651,-21.31043 0.0794,-0.0695 2.56859,-1.74052 5.53147,-3.71343 4.55816,-3.03518 5.40991,-3.54077 5.53571,-3.28596 0.13825,0.28002 0.30626,51.23934 0.19752,59.91051 l -0.0488,3.89508 z"
         style="fill:#000000;fill-opacity:1;stroke:#000000;stroke-width:0.4049494;stroke-miterlimit:4;stroke-dasharray:none;stroke-opacity:1" />
      <path
         transform="scale(0.26458333)"
         inkscape:connector-curvature="0"
         id="path1986"
         d="m 589.73445,629.36049 c 0.0134,-12.2686 0.054,-22.14583 0.0902,-21.9494 0.0362,0.19643 0.98956,8.63393 2.11849,18.75 1.12892,10.11607 2.08858,18.54617 2.13258,18.73356 0.053,0.22576 -0.64887,1.40049 -2.08051,3.48214 -1.18828,1.72779 -2.18854,3.17492 -2.2228,3.21585 -0.0343,0.0409 -0.0514,-9.96355 -0.038,-22.23215 z"
         style="fill:#000000;fill-opacity:1;stroke:#000000;stroke-width:0.4049494;stroke-miterlimit:4;stroke-dasharray:none;stroke-opacity:1" />
      <rect
         ry="1.5702084"
         y="151.53856"
         x="50.046219"
         height="3.1404169"
         width="3.1404169"
         id="rect1991"
         style="fill:#000000;fill-opacity:1;stroke:#000000;stroke-width:0.60000002;stroke-miterlimit:4;stroke-dasharray:none;stroke-opacity:1" />
      <rect
         ry="0.96885204"
         y="147.79678"
         x="52.451641"
         height="2.2049735"
         width="1.9377041"
         id="rect1993"
         style="fill:#000000;fill-opacity:1;stroke:#000000;stroke-width:0.60000002;stroke-miterlimit:4;stroke-dasharray:none;stroke-opacity:1" />
      <rect
         ry="0.30119976"
         y="155.6369"
         x="54.050598"
         height="0.80319941"
         width="0.60239953"
         id="rect1995"
         style="fill:#000000;fill-opacity:1;stroke:#000000;stroke-width:0.60000002;stroke-miterlimit:4;stroke-dasharray:none;stroke-opacity:1" />
      <rect
         ry="0.017717633"
         y="155.24712"
         x="54.487629"
         height="0.035435267"
         width="0.11811756"
         id="rect1997"
         style="fill:#000000;fill-opacity:1;stroke:#000000;stroke-width:0.60000002;stroke-miterlimit:4;stroke-dasharray:none;stroke-opacity:1" />
      <rect
         ry="0.017717637"
         y="154.25493"
         x="54.416759"
         height="1.2520461"
         width="0.55515254"
         id="rect1999"
         style="fill:#000000;fill-opacity:1;stroke:#000000;stroke-width:0.60000002;stroke-miterlimit:4;stroke-dasharray:none;stroke-opacity:1" />
      <rect
         ry="0.017717637"
         y="152.93201"
         x="55.420757"
         height="0.62602305"
         width="0.49609375"
         id="rect2001"
         style="fill:#000000;fill-opacity:1;stroke:#000000;stroke-width:0.60000002;stroke-miterlimit:4;stroke-dasharray:none;stroke-opacity:1" />
      <rect
         ry="0.017717637"
         y="152.14061"
         x="54.097839"
         height="1.8544457"
         width="1.6536458"
         id="rect2003"
         style="fill:#000000;fill-opacity:1;stroke:#000000;stroke-width:0.60000002;stroke-miterlimit:4;stroke-dasharray:none;stroke-opacity:1" />
      <rect
         transform="matrix(0.43511589,0.90037446,-0.95239242,0.30487482,0,0)"
         ry="0.017717637"
         y="12.735202"
         x="139.89691"
         height="0.77957588"
         width="2.4335301"
         id="rect2005"
         style="fill:#000000;fill-opacity:1;stroke:#000000;stroke-width:0.60297227;stroke-miterlimit:4;stroke-dasharray:none;stroke-opacity:1" />
      <path
         transform="scale(0.26458333)"
         inkscape:connector-curvature="0"
         id="path2007"
         d="m 208.05773,548.8619 c 0.73082,-1.13696 0.67143,-1.12229 0.95242,-0.23518 0.13445,0.42445 0.23065,0.78551 0.21379,0.80237 -0.0169,0.0169 -0.17843,-0.0102 -0.35906,-0.06 -0.34362,-0.0949 -0.98528,0.0152 -1.09162,0.18723 -0.0295,0.0478 -0.0906,0.0869 -0.13569,0.0869 -0.0451,0 0.14396,-0.35156 0.42016,-0.78125 z"
         style="fill:#000000;fill-opacity:1;stroke:#000000;stroke-width:0.2024747;stroke-miterlimit:4;stroke-dasharray:none;stroke-opacity:1" />
      <rect
         ry="0.017717637"
         y="145.5349"
         x="54.74749"
         height="0.32482329"
         width="0.06496466"
         id="rect2011"
         style="fill:#000000;fill-opacity:1;stroke:#000000;stroke-width:0.60000002;stroke-miterlimit:4;stroke-dasharray:none;stroke-opacity:1" />
      <rect
         ry="0.0059058703"
         y="145.48766"
         x="55.098888"
         height="0.085635222"
         width="0.017717633"
         id="rect2017"
         style="fill:#000000;fill-opacity:1;stroke:#000000;stroke-width:0.60000002;stroke-miterlimit:4;stroke-dasharray:none;stroke-opacity:1" />
      <rect
         style="fill:#000000;fill-opacity:1;stroke:#000000;stroke-width:0.60000002;stroke-miterlimit:4;stroke-dasharray:none;stroke-opacity:1"
         id="rect2019"
         width="0.017717633"
         height="0.085635222"
         x="55.098888"
         y="145.48766"
         ry="0.0059058703" />
      <path
         transform="scale(0.26458333)"
         inkscape:connector-curvature="0"
         id="path2021"
         d="m 208.6627,547.84917 c 0.037,-0.0571 0.0462,-0.0648 0.0773,-0.065 0.0175,-1.3e-4 0.0266,0.0107 0.0363,0.043 0.007,0.0237 0.0129,0.046 0.0129,0.0496 0,0.004 -0.0239,0.006 -0.053,0.005 -0.0292,-6.2e-4 -0.0647,0.003 -0.079,0.007 -0.0257,0.008 -0.0257,0.008 0.005,-0.0401 z"
         style="fill:#000000;fill-opacity:1;stroke:#000000;stroke-width:0.02530934;stroke-miterlimit:4;stroke-dasharray:none;stroke-opacity:1" />
      <path
         transform="scale(0.26458333)"
         inkscape:connector-curvature="0"
         id="path2023"
         d="m 228.72197,515.18077 c -0.44601,-0.68687 -1.20106,-1.37207 -1.51196,-1.37207 -0.15012,0 -0.0895,-0.0948 0.32446,-0.50717 l 0.43555,-0.43392 0.5265,1.34397 c 0.28958,0.73919 0.51864,1.35185 0.50901,1.36147 -0.01,0.01 -0.13722,-0.1669 -0.28356,-0.39228 z"
         style="fill:#000000;fill-opacity:1;stroke:#000000;stroke-width:0.10123735;stroke-miterlimit:4;stroke-dasharray:none;stroke-opacity:1" />
      <path
         transform="scale(0.26458333)"
         inkscape:connector-curvature="0"
         id="path2025"
         d="m 229.19026,515.98692 c -0.0212,-0.0374 -0.0771,-0.13396 -0.12408,-0.2146 -0.047,-0.0806 -0.0855,-0.14726 -0.0855,-0.14803 0,-7.7e-4 0.01,-4.6e-4 0.022,7e-4 0.018,0.002 0.0247,-6.1e-4 0.0369,-0.0127 0.008,-0.008 0.0155,-0.0141 0.0163,-0.0131 0.005,0.006 0.17709,0.45166 0.17525,0.45351 -0.001,0.001 -0.0196,-0.0283 -0.0409,-0.0657 z"
         style="fill:#000000;fill-opacity:1;stroke:#000000;stroke-width:0.01265467;stroke-miterlimit:4;stroke-dasharray:none;stroke-opacity:1" />
      <path
         transform="scale(0.26458333)"
         inkscape:connector-curvature="0"
         id="path2027"
         d="m 227.06942,513.78168 c -0.003,-0.001 -0.0154,-0.004 -0.0274,-0.006 l -0.0218,-0.004 0.0438,-0.0441 c 0.0241,-0.0242 0.0445,-0.0434 0.0453,-0.0425 8.5e-4,8.4e-4 -0.004,0.0122 -0.0102,0.0252 -0.006,0.013 -0.013,0.0349 -0.0145,0.0485 -0.003,0.0243 -0.004,0.026 -0.0153,0.0221 z"
         style="fill:#000000;fill-opacity:1;stroke:#000000;stroke-width:0.01265467;stroke-miterlimit:4;stroke-dasharray:none;stroke-opacity:1" />
      <path
         transform="scale(0.26458333)"
         inkscape:connector-curvature="0"
         id="path2029"
         d="m 208.55361,528.40169 -1.62859,-2.09172 -0.0228,-0.26406 c -0.046,-0.53257 -0.12971,-2.01809 -0.11453,-2.03327 0.003,-0.003 0.0327,0.0705 0.0656,0.16358 0.57861,1.63724 1.6625,3.70274 3.16897,6.03893 0.0945,0.14654 0.16914,0.26909 0.16589,0.27234 -0.003,0.003 -0.73878,-0.93535 -1.6345,-2.0858 z"
         style="fill:#000000;fill-opacity:1;stroke:#000000;stroke-width:0.03579281;stroke-miterlimit:4;stroke-dasharray:none;stroke-opacity:1" />
      <path
         transform="scale(0.26458333)"
         inkscape:connector-curvature="0"
         id="path2031"
         d="m 205.84369,527.3622 c -0.0101,-0.12454 -0.28724,-1.17605 -0.41596,-1.57836 -0.21577,-0.67436 -0.55881,-1.50316 -0.9342,-2.25706 -0.19451,-0.39065 -0.34919,-0.71482 -0.34372,-0.72039 0.005,-0.006 0.37832,0.46321 0.82855,1.04172 l 0.8186,1.05184 0.0528,0.74184 c 0.0291,0.408 0.0509,0.87678 0.0486,1.04172 -0.004,0.29663 -0.0448,0.80063 -0.0547,0.67869 z"
         style="fill:#000000;fill-opacity:1;stroke:#000000;stroke-width:0.07158562;stroke-miterlimit:4;stroke-dasharray:none;stroke-opacity:1" />
      <rect
         ry="0.0059058703"
         y="146.99498"
         x="155.25018"
         height="3.8754082"
         width="4.2094951"
         id="rect2033"
         style="fill:#000000;fill-opacity:1;stroke:#000000;stroke-width:0.60000002;stroke-miterlimit:4;stroke-dasharray:none;stroke-opacity:1" />
      <rect
         ry="0.0059058703"
         y="146.22656"
         x="143.79102"
         height="3.2740517"
         width="4.911078"
         id="rect2035"
         style="fill:#000000;fill-opacity:1;stroke:#000000;stroke-width:0.60000002;stroke-miterlimit:4;stroke-dasharray:none;stroke-opacity:1" />
      <rect
         ry="0.0059058703"
         y="151.07083"
         x="141.28535"
         height="0.70158249"
         width="1.1358955"
         id="rect2037"
         style="fill:#000000;fill-opacity:1;stroke:#000000;stroke-width:0.60000002;stroke-miterlimit:4;stroke-dasharray:none;stroke-opacity:1" />
      <rect
         ry="0.0059058703"
         y="160.22481"
         x="154.48178"
         height="3.0067821"
         width="1.3029389"
         id="rect2039"
         style="fill:#000000;fill-opacity:1;stroke:#000000;stroke-width:0.60000002;stroke-miterlimit:4;stroke-dasharray:none;stroke-opacity:1" />
      <path
         transform="scale(0.26458333)"
         inkscape:connector-curvature="0"
         id="path2041"
         d="m 589.59685,651.83521 v -0.12543 l 0.0373,0.0318 c 0.0205,0.0175 0.0465,0.0372 0.0578,0.0437 0.0191,0.0111 0.018,0.0154 -0.017,0.067 -0.0837,0.12332 -0.0782,0.12453 -0.0782,-0.0171 z"
         style="fill:#000000;fill-opacity:1;stroke:#000000;stroke-width:0.02530934;stroke-miterlimit:4;stroke-dasharray:none;stroke-opacity:1" />
      <path
         transform="scale(0.26458333)"
         inkscape:connector-curvature="0"
         id="path2043"
         d="m 587.52499,648.97179 c -0.0495,-0.18369 -0.0882,-0.33541 -0.086,-0.33715 0.002,-0.002 0.0449,-0.008 0.0948,-0.0134 l 0.0907,-0.0102 v 0.34738 c 0,0.19106 -0.002,0.34738 -0.005,0.34738 -0.003,0 -0.0453,-0.1503 -0.0948,-0.33399 z"
         style="fill:#000000;fill-opacity:1;stroke:#000000;stroke-width:0.03579281;stroke-miterlimit:4;stroke-dasharray:none;stroke-opacity:1" />
      <rect
         ry="0.0059058703"
         y="169.0676"
         x="155.86218"
         height="0.28814995"
         width="0.50530642"
         id="rect2057"
         style="fill:#000000;fill-opacity:1;stroke:#000000;stroke-width:0.60000002;stroke-miterlimit:4;stroke-dasharray:none;stroke-opacity:1" />
      <rect
         ry="0.0059058703"
         y="161.06003"
         x="154.14769"
         height="3.0067821"
         width="1.4699824"
         id="rect2061"
         style="fill:#000000;fill-opacity:1;stroke:#000000;stroke-width:0.60000002;stroke-miterlimit:4;stroke-dasharray:none;stroke-opacity:1" />
      <rect
         ry="0.0059058703"
         y="164.20045"
         x="154.81587"
         height="4.8776689"
         width="1.3029389"
         id="rect2063"
         style="fill:#000000;fill-opacity:1;stroke:#000000;stroke-width:0.60000002;stroke-miterlimit:4;stroke-dasharray:none;stroke-opacity:1" />
      <rect
         ry="0.0059058703"
         y="156.84218"
         x="154.63213"
         height="1.7121954"
         width="0.65982163"
         id="rect2065"
         style="fill:#000000;fill-opacity:1;stroke:#000000;stroke-width:0.60000002;stroke-miterlimit:4;stroke-dasharray:none;stroke-opacity:1" />
      <rect
         ry="0.0059058703"
         y="158.33723"
         x="153.86372"
         height="2.8397388"
         width="1.6537303"
         id="rect2067"
         style="fill:#000000;fill-opacity:1;stroke:#000000;stroke-width:0.60000002;stroke-miterlimit:4;stroke-dasharray:none;stroke-opacity:1" />
      <rect
         ry="0.0041760863"
         y="172.12666"
         x="155.88495"
         height="0.091873899"
         width="0.0083521726"
         id="rect2069"
         style="fill:#000000;fill-opacity:1;stroke:#000000;stroke-width:0.60000002;stroke-miterlimit:4;stroke-dasharray:none;stroke-opacity:1" />
      <rect
         ry="0.0041760774"
         y="155.61327"
         x="155.11198"
         height="1.6063988"
         width="0.094494052"
         id="rect2071"
         style="fill:#000000;fill-opacity:1;stroke:#000000;stroke-width:0.60000002;stroke-miterlimit:4;stroke-dasharray:none;stroke-opacity:1" />
      <path
         transform="scale(0.26458333)"
         inkscape:connector-curvature="0"
         id="path2073"
         d="m 642.13498,503.35711 c -0.11458,-0.18348 -0.4328,-0.42839 -0.70715,-0.54425 l -0.49883,-0.21066 2.42395,-2.98006 c 1.33317,-1.63903 2.44566,-2.95836 2.47218,-2.93183 0.0265,0.0265 -0.74603,1.61247 -1.71679,3.52431 -1.53465,3.02235 -1.79223,3.43253 -1.97336,3.14249 z"
         style="fill:#000000;fill-opacity:1;stroke:#000000;stroke-width:0.4049494;stroke-miterlimit:4;stroke-dasharray:none;stroke-opacity:1" />
      <path
         transform="scale(0.26458333)"
         inkscape:connector-curvature="0"
         id="path2075"
         d="m 588.6472,652.85932 c -0.36926,-1.0427 -0.9504,-3.60428 -0.96653,-4.26035 -0.0111,-0.45209 -0.0431,-0.63731 -0.0711,-0.41161 -0.0552,0.44483 -0.23078,0.54376 -0.33615,0.18941 -0.0361,-0.12154 -0.52487,-1.95402 -1.08608,-4.07218 -0.5612,-2.11817 -1.07907,-4.00001 -1.15081,-4.18187 -0.0717,-0.18187 -0.32551,-0.51973 -0.56393,-0.75082 l -0.43349,-0.42015 v -1.37633 c 0,-1.26654 -0.0561,-1.58942 -0.70337,-4.04741 -1.13693,-4.31751 -4.16726,-16.37371 -4.71794,-18.77038 -0.5395,-2.34803 -1.01608,-5.75637 -1.64743,-11.78174 -0.20962,-2.00056 -0.38113,-3.69099 -0.38113,-3.7565 0,-0.073 2.39399,-0.11913 6.18718,-0.11913 5.29484,0 6.18719,0.0262 6.18719,0.18144 0,0.58111 0.65767,5.98525 0.75394,6.19515 0.0637,0.1389 0.14123,0.65029 0.17228,1.13642 0.0311,0.48614 0.20238,2.07713 0.38072,3.53554 0.17835,1.4584 1.06505,9.24289 1.97046,17.29886 0.9054,8.05596 1.72619,15.29596 1.82396,16.08889 0.0978,0.79292 0.14479,1.53159 0.10446,1.64149 -0.21817,0.59463 -3.86124,6.03652 -4.31804,6.45014 -0.11504,0.10418 -0.393,0.45931 -0.61768,0.78919 -0.43663,0.64107 -0.49924,0.68825 -0.58647,0.44194 z"
         style="fill:#000000;fill-opacity:1;stroke:#000000;stroke-width:0.28634247;stroke-miterlimit:4;stroke-dasharray:none;stroke-opacity:1" />
    </g>
  </g>
  <g
     inkscape:groupmode="layer"
     id="layer4"
     inkscape:label="ret"
     transform="translate(-31.606403,-104.70075)" />
</svg>
